<?xml version="1.0" ?><svg width="100px" height="100px" viewBox="0 0 100 100" style="enable-background:new 0 0 100 100;" version="1.1" xml:space="preserve" xmlns="http://www.w3.org/2000/svg" xmlns:xlink="http://www.w3.org/1999/xlink"><g id="tree"/><g id="plant"/><g id="flower"/><g id="flower_pot"/><g id="rose"/><g id="garden"/><g id="fance"/><g id="floral"/><g id="sunflower"/><g id="sprinkle"/><g id="water_hose"/><g id="planting"/><g id="fertilizer"/><g id="bee"><path d="M56,63C56,63,56,63,56,63C56,63,56,63,56,63h-1.7c22.3-12.6,33.3-39.6,28.6-52c-1.4-3.7-5.5-9.4-17.1-6   c-2.8,0.8-5.3,2-7.5,3.4c-2-2.5-4.5-4.1-7.3-4.4c-3.7-0.5-7.7,1.1-11.9,4.8C22.4,23.2,29.1,48.4,35.2,63H34c-0.1,0-0.2,0-0.3,0.1   c-1.4-0.7-3-1.1-4.7-1.1c-1.9,0-3.7,0.5-5.3,1.4c-1-4.5-3.8-7.2-7.7-7.4c0,0,0,0,0,0c-0.5,0-1,0.4-1,1c0,0.6,0.4,1,1,1   c3.1,0.1,5.3,2.5,6,6.6c-0.6,0.5-1.1,1.1-1.6,1.7c-3.5-4.6-7.2-4.3-9.7-3.2c-0.5,0.2-0.7,0.8-0.5,1.3c0.2,0.5,0.8,0.7,1.3,0.5   c2.9-1.3,5.4-0.2,7.8,3.2C18.4,69.6,18,71.2,18,73c0,6.1,4.9,11,11,11c1.7,0,3.3-0.4,4.7-1.1c0.1,0,0.2,0.1,0.3,0.1h22   c20.3,0,32.1,12.6,32.3,12.7c0.2,0.2,0.5,0.3,0.7,0.3c0.1,0,0.2,0,0.4-0.1c0.4-0.2,0.6-0.5,0.6-0.9C90,64.4,56.4,63,56,63z    M84.1,79.6c0,0.1-0.1,0.2-0.1,0.4c0,0.1,0,5.2-2.5,8c-1.6-1-3.4-1.9-5.5-2.8c2.1-3.3,2.2-9.2,2.1-12.3   C80.4,74.7,82.4,76.9,84.1,79.6z M68.3,82.5c2.1-5.7,1.3-12.2,0.9-14.7c2.3,0.9,4.6,2,6.9,3.5c0.3,2.8,0.4,10.1-1.8,13.1   C72.4,83.7,70.4,83,68.3,82.5z M59.8,81.2c0.7-0.9,1.2-2,1.2-3.2V68c0-0.9-0.3-1.8-0.7-2.5c1.9,0.3,4.2,0.8,6.7,1.6   c0,0.1,0,0.1,0,0.2c0,0.1,1.8,8.3-0.7,14.8C64.3,81.6,62.1,81.3,59.8,81.2z M66.3,7C73.9,4.7,79,6.4,81,11.7   C85.6,23.7,73.2,52,50,63h-7.7C41.8,56.3,40,14.8,66.3,7z M40.4,10.3c3.8-3.2,7.2-4.7,10.3-4.3c2.2,0.3,4.2,1.5,5.9,3.6   C38.2,23.4,39.7,56.4,40.2,63h-2.8C31.5,49,24.3,24.2,40.4,10.3z M20,73c0-1.6,0.4-3.1,1.1-4.3c0,0,0.1-0.1,0.1-0.1   c1.6-2.7,4.5-4.5,7.8-4.5c5,0,9,4,9,9s-4,9-9,9S20,78,20,73z M40,73c0-3.2-1.3-6-3.5-8H56c0,0,0,0,0,0c1.6,0,3,1.4,3,3v10   c0,1.7-1.3,3-3,3H36.5C38.7,79,40,76.2,40,73z M83.3,89.1c1.5-1.8,2.2-4.3,2.5-6.2c1.2,2.8,2,6,2.2,9.7   C86.8,91.7,85.3,90.4,83.3,89.1z"/></g><g id="butterfly"/><g id="shovel"/><g id="ladybug"/><g id="watering"/><g id="hanging_pot"/><g id="green_house"/></svg>